<?xml version="1.0" encoding="utf-8"?>
<!-- Generator: Adobe Illustrator 19.0.1, SVG Export Plug-In . SVG Version: 6.00 Build 0)  -->
<svg version="1.1" id="Layer_1" xmlns="http://www.w3.org/2000/svg" xmlns:xlink="http://www.w3.org/1999/xlink" x="0px" y="0px"
	 viewBox="0 0 33.5 36" style="enable-background:new 0 0 33.5 36;" xml:space="preserve">
<style type="text/css">
	.st0{fill:#295176;}
</style>
<g>
	<g>
		<path class="st0" d="M5,17.9H0C0,8.3,7.8,0.5,17.4,0.5c3.9,0,7.6,1.3,10.7,3.6L25,8.1c-2.2-1.7-4.8-2.6-7.6-2.6
			C10.6,5.5,5,11.1,5,17.9z"/>
		<g>
			<polygon class="st0" points="32.2,0 19,10.8 31,12 			"/>
		</g>
	</g>
	<g>
		<path class="st0" d="M16.1,35.4c-3.9,0-7.6-1.3-10.7-3.6l3.1-3.9c2.2,1.7,4.8,2.6,7.6,2.6c6.8,0,12.4-5.6,12.4-12.4h5
			C33.5,27.6,25.7,35.4,16.1,35.4z"/>
		<g>
			<polygon class="st0" points="1.3,36 14.5,25.2 2.5,24 			"/>
		</g>
	</g>
</g>
</svg>
